<?xml version="1.0" standalone="no"?>
<!DOCTYPE svg PUBLIC "-//W3C//DTD SVG 20010904//EN"
 "http://www.w3.org/TR/2001/REC-SVG-20010904/DTD/svg10.dtd">
<svg version="1.0" xmlns="http://www.w3.org/2000/svg"
 width="103.000000pt" height="53.000000pt" viewBox="0 0 103.000000 53.000000"
 preserveAspectRatio="xMidYMid meet">

<g transform="translate(0.000000,53.000000) scale(0.100000,-0.100000)"
fill="#000000" stroke="none">
<path d="M807 414 c4 -12 -17 -38 -73 -91 l-79 -74 163 83 c163 83 163 83 125
90 -21 4 -61 7 -90 7 -44 1 -51 -1 -46 -15z"/>
<path d="M190 394 c0 -15 -39 -88 -95 -179 -52 -84 -95 -158 -95 -164 0 -7 26
-11 75 -11 l75 0 123 85 c81 57 123 81 125 72 2 -8 -13 -42 -33 -75 -19 -33
-35 -65 -35 -70 0 -15 26 -22 79 -22 51 0 56 3 469 273 132 87 165 114 95 78
-97 -49 -379 -204 -387 -212 -15 -14 -36 -11 -36 7 0 8 31 64 69 125 l70 109
-94 0 c-70 0 -96 -4 -102 -14 -19 -32 -219 -174 -230 -163 -3 4 19 45 50 92
32 47 57 87 57 90 0 3 -40 5 -90 5 l-90 0 0 -26z"/>
</g>
</svg>
